<?xml version="1.0" standalone="no"?>
<!DOCTYPE svg PUBLIC "-//W3C//DTD SVG 20010904//EN"
 "http://www.w3.org/TR/2001/REC-SVG-20010904/DTD/svg10.dtd">
<svg version="1.0" xmlns="http://www.w3.org/2000/svg"
 width="345.000000pt" height="345.000000pt" viewBox="0 0 345.000000 345.000000"
 preserveAspectRatio="xMidYMid meet">
<metadata>
Created by potrace 1.14, written by Peter Selinger 2001-2017
</metadata>
<g transform="translate(0.000000,345.000000) scale(0.100000,-0.100000)"
fill="#000000" stroke="none">
<path d="M490 2831 c0 -11 5 -23 10 -26 6 -4 10 5 10 19 0 14 -4 26 -10 26 -5
0 -10 -9 -10 -19z"/>
<path d="M479 2740 c-4 -30 -5 -57 -3 -59 10 -11 15 12 12 60 l-3 54 -6 -55z"/>
<path d="M522 2750 c0 -8 6 -31 13 -50 7 -19 13 -28 13 -20 0 8 -6 31 -13 50
-7 19 -13 28 -13 20z"/>
<path d="M552 2630 c0 -14 2 -19 5 -12 2 6 2 18 0 25 -3 6 -5 1 -5 -13z"/>
<path d="M481 2614 c0 -11 3 -14 6 -6 3 7 2 16 -1 19 -3 4 -6 -2 -5 -13z"/>
<path d="M515 2580 c4 -19 9 -44 11 -55 4 -16 3 -17 -5 -5 -18 25 -12 2 9 -40
11 -22 20 -47 20 -56 0 -10 2 -15 5 -12 8 8 -20 162 -34 184 -10 16 -11 14 -6
-16z"/>
<path d="M552 2530 c0 -14 2 -19 5 -12 2 6 2 18 0 25 -3 6 -5 1 -5 -13z"/>
<path d="M1488 2514 c-39 -21 -35 -28 5 -8 37 19 44 24 31 24 -5 -1 -21 -8
-36 -16z"/>
<path d="M784 2498 c-10 -12 -13 -18 -6 -14 15 9 15 1 2 -25 -6 -10 -7 -19 -2
-19 5 0 16 18 25 40 17 44 10 51 -19 18z"/>
<path d="M694 2418 l-19 -23 23 19 c21 18 27 26 19 26 -2 0 -12 -10 -23 -22z"/>
<path d="M750 2390 c-6 -11 -8 -20 -6 -20 3 0 10 9 16 20 6 11 8 20 6 20 -3 0
-10 -9 -16 -20z"/>
<path d="M385 2378 c-4 -14 -5 -44 -2 -69 3 -39 4 -37 5 15 2 56 3 59 18 40
14 -18 14 -18 3 6 -16 35 -17 35 -24 8z"/>
<path d="M567 2334 c3 -39 0 -95 -6 -125 -14 -65 -53 -169 -63 -169 -5 0 -8
-6 -8 -14 0 -7 -13 -42 -29 -77 -16 -36 -37 -91 -46 -123 -19 -67 -27 -63 -47
24 -10 45 -13 50 -18 30 l-6 -25 -18 30 -17 30 6 -29 c3 -15 20 -46 38 -68
l31 -39 1 -160 c0 -123 -3 -156 -12 -143 -10 14 -12 13 -18 -5 -3 -12 -12 -21
-18 -21 -7 -1 4 -10 24 -20 32 -17 40 -29 59 -87 11 -37 24 -74 27 -82 3 -9 1
-11 -6 -7 -6 4 -11 3 -11 -3 0 -5 -10 -11 -22 -14 -21 -3 -20 -4 7 -11 17 -4
35 -9 41 -11 6 -2 37 -42 69 -90 31 -47 59 -84 62 -81 3 2 -13 28 -35 58 -52
68 -102 163 -102 193 0 12 7 28 15 35 8 7 15 17 15 23 0 7 -4 7 -12 -1 -18
-18 -28 -15 -29 11 0 21 -1 21 -8 2 -10 -25 -41 136 -41 212 0 49 2 53 51 95
42 37 47 44 29 45 -11 1 -24 -5 -27 -13 -4 -12 -8 -12 -20 3 -8 10 -12 12 -8
6 3 -7 1 -13 -6 -13 -27 0 13 136 94 317 25 55 52 125 61 155 8 30 27 65 41
78 14 13 25 31 25 40 0 9 5 21 12 28 6 6 9 14 6 18 -4 3 -14 -8 -23 -25 -17
-34 -27 -41 -20 -13 3 9 -1 4 -9 -13 l-15 -30 -1 35 c-1 19 -5 53 -10 75 -6
31 -7 23 -3 -31z"/>
<path d="M1071 2323 c-6 -21 -11 -44 -11 -50 0 -7 -1 -13 -2 -13 -2 0 -36 7
-76 15 -82 17 -136 9 -167 -25 -23 -26 -11 -26 22 0 30 23 89 26 161 9 26 -7
48 -13 49 -14 2 -1 -8 -68 -22 -149 -43 -254 -32 -405 32 -421 35 -8 66 14
111 82 l37 57 3 -37 c2 -23 11 -42 24 -51 34 -24 76 2 126 79 28 43 32 46 26
20 -4 -16 -11 -33 -17 -36 -5 -4 -5 -9 2 -13 6 -4 11 -22 11 -41 0 -38 22 -65
52 -65 18 0 19 -2 7 -17 -7 -10 1 -5 18 11 18 16 31 34 30 40 -1 6 4 10 11 8
8 -1 11 2 7 8 -9 15 40 77 75 95 41 21 74 20 66 -2 -18 -45 -18 -103 -2 -128
21 -32 46 -32 86 2 26 21 33 24 41 12 5 -8 9 -21 10 -29 0 -9 2 -11 5 -3 3 7
0 21 -6 33 -9 17 -6 29 21 70 18 28 34 50 36 50 3 0 2 -13 -2 -30 -9 -43 5
-120 26 -141 44 -44 98 -8 170 111 l37 60 4 -74 c8 -161 97 -156 194 10 22 38
29 44 32 29 7 -44 26 -77 55 -91 47 -25 103 2 176 83 l59 66 21 -34 c28 -45
27 -49 -13 -81 -64 -51 -56 -121 14 -121 49 0 82 40 88 106 4 53 6 56 53 87
27 17 49 36 49 41 0 5 -23 -7 -52 -26 l-51 -36 -38 68 c-44 78 -48 109 -18
147 28 36 52 30 60 -14 4 -26 7 -31 13 -18 4 9 2 29 -6 45 -10 22 -21 29 -49
31 -66 6 -118 -80 -91 -151 10 -27 8 -34 -18 -67 -46 -58 -118 -120 -139 -120
-28 0 -43 32 -39 83 3 39 6 43 51 64 46 23 87 71 87 104 0 22 -32 49 -59 49
-38 0 -79 -38 -122 -113 -70 -122 -102 -171 -128 -199 -53 -59 -75 -24 -69
111 4 91 6 98 40 146 103 143 170 356 124 395 -44 35 -102 -25 -151 -157 l-33
-88 -45 -3 -45 -3 25 67 c27 76 28 151 2 167 -45 28 -99 -28 -141 -147 l-23
-65 -72 6 c-71 6 -103 -3 -103 -29 0 -6 7 -5 15 2 16 13 77 15 127 5 21 -5 28
-11 24 -22 -4 -9 -13 -59 -22 -112 -14 -91 -40 -155 -82 -203 -12 -15 -18 -16
-31 -5 -14 11 -14 10 -2 -5 11 -15 11 -21 1 -33 -19 -22 -40 -18 -40 8 0 12 7
49 15 81 17 64 13 80 -17 70 -14 -4 -18 -2 -14 5 4 6 16 11 27 11 19 0 19 1 2
26 -13 20 -18 23 -22 11 -8 -20 -70 -71 -78 -63 -4 3 -2 21 3 39 6 17 8 39 6
49 -4 22 -31 31 -48 17 -20 -17 -35 -79 -24 -99 14 -25 -15 -56 -64 -69 -22
-6 -42 -9 -44 -6 -2 2 8 46 23 97 35 116 37 142 10 146 -16 2 -30 -18 -76
-115 -54 -113 -101 -179 -120 -167 -16 10 -9 78 15 149 25 72 22 105 -10 105
-14 0 -64 -91 -64 -119 0 -24 -70 -148 -100 -176 -25 -23 -32 -26 -45 -15 -30
25 -14 263 31 459 l15 66 60 2 c57 1 89 14 89 35 0 6 -11 3 -25 -6 -13 -9 -45
-16 -71 -16 l-46 0 6 44 c6 39 4 46 -16 60 -32 23 -36 21 -47 -21z m1229 -41
c0 -16 -9 -57 -21 -92 -33 -103 -129 -278 -129 -238 0 28 22 122 31 134 5 6 7
13 4 16 -8 8 42 146 65 178 27 38 50 39 50 2z m-244 -29 c-4 -21 -16 -66 -28
-100 -20 -57 -24 -63 -50 -63 -35 0 -36 15 -4 93 31 75 53 107 72 107 13 0 15
-7 10 -37z m-68 -188 c2 -2 -13 -33 -34 -69 -21 -36 -39 -64 -41 -62 -2 2 4
36 12 75 15 66 19 71 38 65 12 -3 23 -8 25 -9z m117 -14 c-3 -10 -12 -55 -20
-101 -8 -45 -20 -89 -27 -97 -7 -8 -13 -21 -14 -29 -6 -41 -96 -164 -120 -164
-22 0 -37 77 -29 155 6 60 13 79 50 135 24 36 49 77 56 93 11 24 17 27 61 27
44 0 49 -2 43 -19z m385 -104 c0 -30 -25 -64 -62 -83 -38 -20 -44 -14 -23 28
36 69 85 102 85 55z m-992 -189 c-35 -45 -58 -49 -58 -9 0 26 4 30 33 34 17 2
36 5 41 5 5 1 -3 -13 -16 -30z m1142 -57 c0 -46 -29 -88 -53 -78 -26 10 -21
57 10 89 36 37 43 35 43 -11z"/>
<path d="M1289 2343 c-13 -16 -12 -17 4 -4 9 7 17 15 17 17 0 8 -8 3 -21 -13z"/>
<path d="M1260 2300 c-6 -11 -8 -20 -6 -20 3 0 10 9 16 20 6 11 8 20 6 20 -3
0 -10 -9 -16 -20z"/>
<path d="M650 2300 c-13 -8 -12 -10 3 -10 9 0 17 5 17 10 0 12 -1 12 -20 0z"/>
<path d="M456 2270 c8 -43 14 -51 14 -19 0 13 -5 31 -10 39 -7 11 -8 5 -4 -20z"/>
<path d="M1492 2224 c-30 -21 -52 -66 -51 -106 l1 -33 8 38 c23 118 142 143
181 38 9 -25 19 -39 23 -33 10 16 -18 77 -45 96 -30 20 -88 21 -117 0z"/>
<path d="M471 2190 c-1 -27 -4 -31 -11 -20 -7 11 -10 11 -10 2 0 -7 -4 -11
-10 -7 -5 3 2 -14 15 -37 14 -24 25 -52 25 -62 0 -11 2 -17 4 -15 2 2 0 42 -4
89 -4 47 -8 69 -9 50z"/>
<path d="M222 2094 c1 -37 2 -41 5 -16 3 22 8 30 16 25 7 -4 5 2 -3 13 -8 10
-16 21 -17 23 -2 2 -2 -18 -1 -45z"/>
<path d="M280 2056 c0 -2 8 -10 18 -17 15 -13 16 -12 3 4 -13 16 -21 21 -21
13z"/>
<path d="M231 2014 c0 -11 3 -14 6 -6 3 7 2 16 -1 19 -3 4 -6 -2 -5 -13z"/>
<path d="M620 1907 c-19 -17 -46 -40 -60 -50 -32 -23 -4 -10 33 15 23 17 27
17 27 3 0 -8 -7 -28 -16 -43 l-16 -27 21 25 c16 20 56 111 48 110 -1 0 -18
-15 -37 -33z"/>
<path d="M446 1773 c-11 -14 -14 -23 -6 -18 8 5 11 3 8 -6 -3 -8 -10 -13 -16
-12 -6 2 -9 -4 -6 -12 8 -20 9 -20 34 15 19 27 19 29 3 23 -17 -6 -17 -5 1 15
11 12 15 22 10 22 -5 0 -18 -12 -28 -27z"/>
<path d="M120 1718 c0 -7 12 -14 26 -14 28 -2 28 -1 -3 15 -18 9 -23 9 -23 -1z"/>
<path d="M210 1676 c0 -3 9 -10 20 -16 11 -6 20 -8 20 -6 0 3 -9 10 -20 16
-11 6 -20 8 -20 6z"/>
<path d="M527 1588 c-19 -24 -42 -57 -51 -75 -30 -59 -16 -48 27 22 28 45 49
70 60 69 9 -1 17 4 17 12 0 25 -18 15 -53 -28z"/>
<path d="M170 1581 c5 -11 15 -23 21 -27 6 -3 3 5 -6 20 -20 30 -30 35 -15 7z"/>
<path d="M581 1574 c0 -11 3 -14 6 -6 3 7 2 16 -1 19 -3 4 -6 -2 -5 -13z"/>
<path d="M1810 1475 c0 -55 4 -84 10 -80 6 3 10 39 10 80 0 41 -4 77 -10 80
-6 4 -10 -25 -10 -80z"/>
<path d="M1983 1553 c-7 -2 -13 -13 -13 -23 0 -10 -6 -20 -12 -23 -10 -3 -10
-8 -2 -18 5 -8 12 -32 13 -54 4 -56 11 -57 11 -1 0 32 5 48 15 52 8 4 15 10
15 15 0 5 -7 9 -15 9 -8 0 -15 5 -15 10 0 6 7 13 15 16 8 4 15 10 15 15 0 10
-8 10 -27 2z"/>
<path d="M2522 1510 c-7 -12 -8 -20 -2 -20 5 0 10 -20 10 -44 0 -31 5 -46 16
-50 21 -8 24 -8 24 4 0 6 -7 10 -15 10 -23 0 -21 77 3 83 15 4 15 5 0 6 -9 0
-18 8 -20 16 -2 13 -6 12 -16 -5z"/>
<path d="M2360 1513 c0 -7 -9 -13 -20 -13 -45 0 -45 -91 -1 -105 12 -3 21 -12
21 -18 0 -7 7 1 15 17 18 33 19 39 5 31 -5 -3 -10 -1 -10 4 0 6 5 11 10 11 6
0 10 8 10 18 -1 20 -29 73 -30 55z m0 -38 c0 -16 -27 -32 -37 -22 -3 4 -3 13
0 22 8 20 37 20 37 0z m0 -51 c0 -9 -7 -14 -17 -12 -25 5 -28 28 -4 28 12 0
21 -6 21 -16z"/>
<path d="M1873 1503 c-20 -4 -23 -11 -23 -54 0 -27 5 -49 10 -49 6 0 10 18 10
40 0 27 5 43 15 47 22 8 28 -1 36 -55 l6 -47 2 51 c1 44 -12 77 -28 73 -4 -1
-16 -4 -28 -6z"/>
<path d="M2042 1488 c-17 -17 -15 -64 4 -82 21 -22 40 -20 58 6 30 42 15 88
-29 88 -12 0 -26 -5 -33 -12z m46 -7 c22 -13 11 -65 -14 -69 -25 -4 -35 22
-23 56 9 24 17 26 37 13z"/>
<path d="M2208 1475 c-10 -22 -9 -32 3 -53 18 -33 41 -39 63 -16 20 20 13 32
-9 14 -23 -19 -45 -5 -45 30 0 38 27 52 47 24 14 -19 15 -19 11 1 -2 13 -12
21 -31 23 -21 3 -29 -2 -39 -23z"/>
<path d="M2414 1477 c3 -12 6 -38 7 -57 2 -29 3 -26 8 15 5 41 9 50 26 50 17
0 21 -9 26 -50 l6 -50 -1 55 -1 55 -38 2 c-35 1 -38 -1 -33 -20z"/>
<path d="M2602 1440 c1 -53 2 -53 5 -10 2 25 11 50 20 57 13 10 13 12 -6 10
-19 -1 -21 -7 -19 -57z"/>
<path d="M2672 1488 c-19 -19 -14 -65 9 -81 25 -18 59 -11 58 12 0 10 -2 11
-6 4 -7 -19 -53 -16 -53 2 0 10 10 15 29 15 36 0 46 13 31 40 -12 22 -49 27
-68 8z m56 -21 c3 -12 -3 -17 -22 -17 -25 0 -35 18 -19 34 12 12 38 2 41 -17z"/>
<path d="M2140 1468 c0 -4 9 -8 20 -8 11 0 20 4 20 9 0 6 -9 9 -20 8 -11 -1
-20 -5 -20 -9z"/>
<path d="M2933 1437 c-12 -20 -19 -37 -14 -37 4 0 13 10 19 23 8 17 9 5 7 -53
l-4 -75 10 75 c12 99 9 113 -18 67z"/>
<path d="M441 1414 c0 -11 3 -14 6 -6 3 7 2 16 -1 19 -3 4 -6 -2 -5 -13z"/>
<path d="M1604 1398 l-19 -23 23 19 c21 18 27 26 19 26 -2 0 -12 -10 -23 -22z"/>
<path d="M3321 1411 c-8 -5 -9 -11 -3 -15 5 -3 12 1 16 9 6 17 6 18 -13 6z"/>
<path d="M200 1358 c0 -4 14 -22 31 -40 l30 -33 -17 35 c-10 19 -17 38 -17 41
1 3 -5 6 -13 6 -7 0 -14 -4 -14 -9z"/>
<path d="M1570 1350 c-6 -11 -8 -20 -6 -20 3 0 10 9 16 20 6 11 8 20 6 20 -3
0 -10 -9 -16 -20z"/>
<path d="M3115 1290 c-3 -5 -14 -10 -24 -10 -10 0 -25 -7 -32 -17 -13 -15 -11
-16 16 -9 31 7 79 46 58 46 -7 0 -15 -4 -18 -10z"/>
<path d="M2908 1265 c-8 -19 -14 -22 -20 -13 -4 8 -8 -5 -8 -32 0 -38 -8 -59
-46 -115 -25 -39 -57 -92 -71 -120 -34 -65 -107 -177 -131 -199 -18 -15 -20
-15 -26 -1 -3 9 -2 13 4 10 12 -7 12 2 1 30 -7 16 -9 14 -16 -15 l-7 -35 -13
40 -13 40 -1 -62 c-1 -34 -4 -70 -8 -80 -4 -10 18 4 48 30 46 42 167 209 185
257 25 67 76 135 130 173 24 17 42 33 39 35 -3 3 -13 -2 -23 -11 -24 -22 -32
-21 -32 4 0 11 4 17 10 14 5 -3 7 0 4 8 -2 7 0 26 5 40 13 34 4 35 -11 2z"/>
<path d="M2998 1234 c-39 -21 -35 -28 5 -8 37 19 44 24 31 24 -5 -1 -21 -8
-36 -16z"/>
<path d="M3070 1110 c-9 -6 -10 -10 -3 -10 6 0 15 5 18 10 8 12 4 12 -15 0z"/>
<path d="M2925 1080 c-3 -6 1 -7 9 -4 18 7 21 14 7 14 -6 0 -13 -4 -16 -10z"/>
<path d="M2624 1048 c-4 -7 -15 -24 -23 -38 -15 -23 -14 -24 1 -12 15 12 17 9
20 -25 3 -30 5 -25 8 25 3 34 4 62 3 62 -1 0 -5 -6 -9 -12z"/>
<path d="M2867 1040 c-37 -23 -42 -29 -20 -25 63 13 73 16 73 26 0 6 -4 8 -9
5 -5 -4 -11 -2 -13 2 -1 5 -15 1 -31 -8z"/>
<path d="M2560 905 c0 -5 5 -17 10 -25 5 -8 10 -10 10 -5 0 6 -5 17 -10 25 -5
8 -10 11 -10 5z"/>
<path d="M2632 880 c0 -19 2 -27 5 -17 2 9 2 25 0 35 -3 9 -5 1 -5 -18z"/>
<path d="M2611 874 c0 -11 3 -14 6 -6 3 7 2 16 -1 19 -3 4 -6 -2 -5 -13z"/>
<path d="M2930 856 c0 -8 51 -13 56 -5 3 5 -9 9 -25 9 -17 0 -31 -2 -31 -4z"/>
<path d="M2450 830 c0 -5 5 -10 10 -10 6 0 10 5 10 10 0 6 -4 10 -10 10 -5 0
-10 -4 -10 -10z"/>
<path d="M2718 811 c-54 -25 -53 -26 9 -22 33 2 51 6 43 11 -7 4 -9 13 -6 19
9 15 -2 13 -46 -8z"/>
<path d="M2429 734 c-15 -35 -25 -64 -22 -64 7 0 55 110 51 119 -2 5 -15 -19
-29 -55z"/>
<path d="M2310 630 c0 -20 -5 -41 -12 -48 -9 -9 -9 -12 0 -12 21 0 61 23 56
32 -3 4 -10 6 -15 3 -5 -4 -9 2 -9 12 0 10 -5 25 -10 33 -7 11 -10 6 -10 -20z"/>
<path d="M2412 621 c-11 -6 -7 -13 16 -30 32 -23 52 -27 52 -11 0 6 -5 10 -11
10 -8 0 -8 5 1 15 10 12 10 15 -3 15 -8 0 -21 2 -29 5 -7 3 -19 1 -26 -4z"/>
<path d="M2230 560 c-14 -4 -18 -8 -9 -9 8 -1 26 -12 39 -26 23 -25 50 -33 50
-16 0 5 -9 12 -19 16 -13 4 -18 13 -16 25 4 21 -4 23 -45 10z"/>
<path d="M2050 550 c0 -5 10 -10 23 -10 18 0 19 2 7 10 -19 13 -30 13 -30 0z"/>
<path d="M2446 466 c5 -12 2 -15 -10 -10 -9 3 -16 1 -16 -5 0 -6 11 -11 25
-11 28 0 32 12 10 30 -13 11 -14 10 -9 -4z"/>
</g>
</svg>
